<svg width="339.9875px" height="326px" xmlns="http://www.w3.org/2000/svg" viewBox="80.00625 -88 339.9875 326" style="background: rgba(0, 0, 0, 0);" preserveAspectRatio="xMidYMid"><defs><filter id="editing-liquid" width="150%" height="160%" x="-25%" y="-25%"><feFlood flood-color="#a0d5ff" result="flood-1"></feFlood><feFlood flood-color="rgba(100%,100%,100%,0.34)" result="flood-2"></feFlood><feFlood flood-color="#0067ff" result="flood-3"></feFlood><feTurbulence baseFrequency="0.01" type="fractalNoise" numOctaves="1" seed="1" result="bs-1"></feTurbulence><feGaussianBlur stdDeviation="10" in="SourceAlpha" result="bs-2"></feGaussianBlur><feDisplacementMap scale="420" in="bs-2" in2="bs-1" result="bs-3"></feDisplacementMap><feComposite operator="in" in="flood-1" in2="bs-3" result="bs-4"></feComposite><feTurbulence baseFrequency="0.02" type="fractalNoise" numOctaves="2" seed="2" result="ms-1"></feTurbulence><feGaussianBlur in="SourceAlpha" stdDeviation="0.1" result="ms-2"></feGaussianBlur><feDisplacementMap in="ms-2" in2="ms-1" scale="35" result="ms-3"></feDisplacementMap><feComposite in="flood-3" in2="ms-3" operator="in" result="ms-4"></feComposite><feTurbulence baseFrequency="0.05" type="fractalNoise" numOctaves="1" seed="3" result="ts-1"></feTurbulence><feGaussianBlur stdDeviation="3.5" in="SourceAlpha" result="ts-2"></feGaussianBlur><feDisplacementMap scale="220" in="ts-2" in2="ts-1" result="ts-3"></feDisplacementMap><feComposite operator="in" in="flood-2" in2="ts-3" result="ts-4"></feComposite><feMerge result="le-1"><feMergeNode in="bs-4"></feMergeNode><feMergeNode in="ms-4"></feMergeNode><feMergeNode in="ts-4"></feMergeNode></feMerge><feColorMatrix type="matrix" in="le-1" result="le-2" values="0 0 0 0 0, 0 0 0 0 0, 0 0 0 0 0, 0 0 0 1 0"></feColorMatrix><feGaussianBlur stdDeviation="2" in="le-2" result="le-3"></feGaussianBlur><feSpecularLighting surfaceScale="5" specularConstant=".75" specularExponent="30" lighting-color="#white" in="le-3" result="le-4"><fePointLight x="-50" y="-100" z="400"></fePointLight></feSpecularLighting><feComposite operator="in" in="le-4" in2="le-2" result="le-5"></feComposite><feComposite operator="arithmetic" k1="0" k2="1" k3="1" k4="0" in="le-1" in2="le-5" result="le-6"></feComposite></filter></defs><g filter="url(#editing-liquid)"><g transform="translate(127.3499813079834, 145.7550048828125)"><path d="M14.24-134.47L44.56-134.47L44.56-134.47Q41.31-126.30 40.78-118.08L40.78-118.08L40.78-118.08Q40.25-109.86 39.99-103.97L39.99-103.97L39.99-103.97Q39.73-98.09 39.55-91.76L39.55-91.76L39.55-91.76Q39.29-76.99 39.29-64.86L39.29-64.86L39.29-64.86Q39.29-15.12 42.98-3.87L42.98-3.87L42.98-3.87Q43.59-1.93 44.56 0L44.56 0L14.24 0L14.24 0Q16.96-5.98 17.49-10.81L17.49-10.81L17.49-10.81Q18.02-15.64 18.46-22.32L18.46-22.32L18.46-22.32Q19.51-36.12 19.51-54.14L19.51-54.14L19.51-54.14Q19.51-72.16 19.42-78.79L19.42-78.79L19.42-78.79Q19.34-85.43 19.16-91.76L19.16-91.76L19.16-91.76Q18.54-122.61 15.47-130.96L15.47-130.96L14.24-134.47ZM140.98-140.63L140.98-140.63L140.98-140.63Q143.53-137.02 143.53-129.59L143.53-129.59L143.53-129.59Q143.53-122.17 143.04-117.55L143.04-117.55L143.04-117.55Q142.56-112.94 141.59-108.63L141.59-108.63L141.59-108.63Q139.48-98.96 135.70-94.04L135.70-94.04L135.70-94.04Q132.45-111.01 127.27-118.30L127.27-118.30L127.27-118.30Q121.82-125.68 113.07-125.68L113.07-125.68L113.07-125.68Q104.33-125.68 99.40-122.34L99.40-122.34L99.40-122.34Q94.48-119.00 91.85-113.55L91.85-113.55L91.85-113.55Q87.45-104.50 87.45-86.88L87.45-86.88L87.45-86.88Q87.45-69.26 91.45-54.62L91.45-54.62L91.45-54.62Q95.45-39.99 102.83-29.44L102.83-29.44L102.83-29.44Q118.39-7.03 143.35-7.03L143.35-7.03L143.35-7.03Q143.00-3.08 139.22-0.18L139.22-0.18L139.22-0.18Q138.08 0.70 136.76 0.88L136.76 0.88L136.76 0.88Q104.85 0.88 84.73-22.59L84.73-22.59L84.73-22.59Q63.37-47.55 63.37-90.62L63.37-90.62L63.37-90.62Q63.37-113.12 76.55-124.45L76.55-124.45L76.55-124.45Q88.24-134.47 108.54-134.47L108.54-134.47L123.22-134.30L123.22-134.30Q133.59-134.30 137.81-137.29L137.81-137.29L137.81-137.29Q139.57-138.60 140.98-140.63ZM228.69-32.52L228.69-32.52L228.69-32.52Q231.06-29.27 231.06-23.12L231.06-23.12L231.06-23.12Q231.06-16.96 230.54-13.32L230.54-13.32L230.54-13.32Q230.01-9.67 228.87-6.68L228.87-6.68L228.87-6.68Q226.23 0 221.92 0L221.92 0L150.73 0L150.73 0Q157.50-3.60 159.70-6.94L159.70-6.94L159.70-6.94Q163.83-13.18 163.83-22.76L163.83-22.76L163.83-22.76Q163.74-46.23 163.74-65.21L163.74-65.21L163.74-111.45L163.74-111.45Q163.74-124.54 159.61-130.43L159.61-130.43L159.61-130.43Q158.03-132.54 155.83-134.47L155.83-134.47L221.92-134.47L221.92-134.47Q227.90-132.36 230.10-119.71L230.10-119.71L230.10-119.71Q230.71-116.19 230.71-112.85L230.71-112.85L230.71-112.85Q230.71-106.00 228.69-101.95L228.69-101.95L223.95-111.45L223.95-111.45Q219.20-120.76 210.32-123.93L210.32-123.93L210.32-123.93Q205.40-125.68 199.25-125.68L199.25-125.68L199.25-125.68Q193.10-125.68 190.46-125.29L190.46-125.29L190.46-125.29Q187.82-124.89 186.42-123.40L186.42-123.40L186.42-123.40Q184.13-120.85 184.13-113.69L184.13-113.69L184.13-113.69Q184.13-106.52 184.48-103.75L184.48-103.75L184.48-103.75Q184.83-100.99 186.15-99.23L186.15-99.23L186.15-99.23Q188.88-95.80 197.67-95.80L197.67-95.80L225.26-95.80L225.26-95.80Q223.24-90.70 221.13-88.59L221.13-88.59L221.13-88.59Q216.91-84.38 209.71-84.38L209.71-84.38L209.71-84.38Q206.89-84.38 204.35-84.99L204.35-84.99L204.35-84.99Q199.60-86.13 196.00-86.13L196.00-86.13L196.00-86.13Q192.39-86.13 190.06-85.47L190.06-85.47L190.06-85.47Q187.73-84.81 186.42-83.41L186.42-83.41L186.42-83.41Q184.13-80.95 184.13-74.53L184.13-74.53L184.13-32.61L184.13-32.61Q184.13-16.08 185.98-13.01L185.98-13.01L185.98-13.01Q187.82-9.93 190.46-9.36L190.46-9.36L190.46-9.36Q193.10-8.79 199.25-8.79L199.25-8.79L199.25-8.79Q205.40-8.79 210.41-10.55L210.41-10.55L210.41-10.55Q215.42-12.30 218.80-15.47L218.80-15.47L218.80-15.47Q222.19-18.63 224.38-22.98L224.38-22.98L224.38-22.98Q226.58-27.33 228.69-32.52Z" fill="#444"></path></g></g><style>text {
  font-size: 64px;
  font-family: Arial Black;
  dominant-baseline: central;
  text-anchor: middle;
}</style></svg>